<?xml version="1.0" encoding="utf-8"?>
<svg version="1.1" id="Layer_1" xmlns="http://www.w3.org/2000/svg" xmlns:xlink="http://www.w3.org/1999/xlink" x="0px" y="0px"
	 viewBox="0 0 104 30" style="enable-background:new 0 0 104 30;" xml:space="preserve">
<style type="text/css">
	.st0{fill:#6772FF;}
</style>
<g>
	<path d="M74.1,25.6l4.2-0.2c0.2,0.7,1.1,1.3,2.5,1.3c1.5,0,2.6-0.6,2.6-2.3v-2.5h-0.2c-0.5,1.3-1.9,2.2-4,2.2
		c-3.1,0-5.6-2.1-5.6-6.8c0-4.9,2.7-7.1,5.6-7.1c2.2,0,3.4,1.3,4,2.6h0.1v-2.4h4.4v14c0,3.4-2.9,5.4-7.1,5.4
		C76.7,29.8,74.4,28,74.1,25.6z M83.4,17.4c0-2.3-0.9-3.7-2.6-3.7c-1.7,0-2.6,1.4-2.6,3.7c0,2.2,0.9,3.6,2.6,3.6
		C82.4,20.9,83.4,19.6,83.4,17.4z"/>
	<path class="st0" d="M88.5,17.4c0-4.3,2.7-7.2,7.2-7.2s7.2,2.9,7.2,7.2c0,4.3-2.7,7.2-7.2,7.2S88.5,21.7,88.5,17.4z M98.4,17.4
		c0-2.3-0.9-3.9-2.6-3.9c-1.7,0-2.6,1.6-2.6,3.9c0,2.3,0.9,3.9,2.6,3.9C97.4,21.3,98.4,19.7,98.4,17.4z"/>
	<path d="M58.4,17.4c0-4.3,2.7-7.2,7.2-7.2s7.2,2.9,7.2,7.2c0,4.3-2.7,7.2-7.2,7.2S58.4,21.7,58.4,17.4z M68.2,17.4
		c0-2.3-0.9-3.9-2.6-3.9c-1.7,0-2.6,1.6-2.6,3.9c0,2.3,0.9,3.9,2.6,3.9C67.3,21.3,68.2,19.7,68.2,17.4z"/>
	<path d="M13.1,17.4c0-4.3,2.7-7.2,7.2-7.2s7.2,2.9,7.2,7.2c0,4.3-2.7,7.2-7.2,7.2S13.1,21.7,13.1,17.4z M22.9,17.4
		c0-2.3-0.9-3.9-2.6-3.9c-1.7,0-2.6,1.6-2.6,3.9c0,2.3,0.9,3.9,2.6,3.9C22,21.3,22.9,19.7,22.9,17.4z"/>
	<polygon class="st0" points="103,9.1 95.8,9.1 95.8,7.4 103,5.7 	"/>
	<path d="M52.1,10.2c-2.2,0-3.4,1.3-4,2.6H48v-7l-4.5,1v17.6H48v-2.3h0.1c0.6,1.3,1.8,2.5,3.9,2.5c3.1,0,5.6-2.4,5.6-7.2
		C57.6,12.5,55,10.2,52.1,10.2z M50.5,21.1c-1.6,0-2.6-1.5-2.6-3.7c0-2.3,0.9-3.7,2.6-3.7c1.6,0,2.6,1.4,2.6,3.7
		C53,19.6,52.1,21.1,50.5,21.1z"/>
	<path d="M36.9,10.2c-2.2,0-3.4,1.3-4,2.6h-0.1v-7l-4.5,1v17.6h4.4v-2.3h0.1c0.6,1.3,1.8,2.5,3.9,2.5c3.1,0,5.6-2.4,5.6-7.2
		C42.5,12.5,39.8,10.2,36.9,10.2z M35.3,21.1c-1.6,0-2.6-1.5-2.6-3.7c0-2.3,0.9-3.7,2.6-3.7c1.6,0,2.6,1.4,2.6,3.7
		C37.9,19.6,37,21.1,35.3,21.1z"/>
	<polygon points="9.7,16.5 14.6,10.4 9.6,10.4 5.7,15.4 5.5,15.4 5.5,5.7 1,6.8 1,24.4 5.5,24.4 5.5,20.2 6.4,19.1 9.7,24.4
		14.8,24.4 	"/>
</g>
</svg>
